<svg width="27" height="27" viewBox="0 0 27 27" fill="none" xmlns="http://www.w3.org/2000/svg">
<path d="M13.4998 8.76038C10.8822 8.76038 8.76026 10.8824 8.76026 13.5C8.76026 16.1176 10.8822 18.2395 13.4998 18.2395C16.1174 18.2395 18.2394 16.1176 18.2394 13.5C18.2394 10.8824 16.1174 8.76038 13.4998 8.76038Z" fill="#C21807"/>
<path fill-rule="evenodd" clip-rule="evenodd" d="M5.87208 0.493773C10.9006 -0.0682369 16.0991 -0.0682369 21.1276 0.493773C23.8961 0.803193 26.1291 2.98454 26.4541 5.76274C27.0553 10.9034 27.0553 16.0966 26.4541 21.2372C26.1291 24.0154 23.8961 26.1967 21.1276 26.5062C16.0991 27.0682 10.9006 27.0682 5.87208 26.5062C3.10359 26.1967 0.870595 24.0154 0.545659 21.2372C-0.0555843 16.0966 -0.0555843 10.9034 0.545659 5.76274C0.870595 2.98454 3.10359 0.803193 5.87208 0.493773ZM20.7915 4.74997C19.9861 4.74997 19.3332 5.40288 19.3332 6.2083C19.3332 7.01371 19.9861 7.66663 20.7915 7.66663C21.5969 7.66663 22.2498 7.01371 22.2498 6.2083C22.2498 5.40288 21.5969 4.74997 20.7915 4.74997ZM6.57276 13.5C6.57276 9.67424 9.67412 6.57288 13.4998 6.57288C17.3256 6.57288 20.4269 9.67424 20.4269 13.5C20.4269 17.3257 17.3256 20.427 13.4998 20.427C9.67412 20.427 6.57276 17.3257 6.57276 13.5Z" fill="#C21807"/>
</svg>
