<svg width="27" height="25" viewBox="0 0 27 25" fill="none" xmlns="http://www.w3.org/2000/svg">
<path d="M6.30305 25C2.82178 25 -0.000353829 22.1779 -0.000353677 18.6966C-0.000353525 15.2153 2.82178 12.3932 6.30305 12.3932C9.78432 12.3932 12.6065 15.2153 12.6065 18.6966C12.6065 22.1779 9.78432 25 6.30305 25ZM6.30305 16.3207C4.99087 16.3207 3.92713 17.3844 3.92713 18.6966C3.92713 20.0088 4.99087 21.0725 6.30305 21.0725C7.61523 21.0725 8.67897 20.0088 8.67897 18.6966C8.67897 17.3844 7.61523 16.3207 6.30305 16.3207Z" fill="#FF0000"/>
<path d="M23.2759 2.81295C24.0201 2.20846 25.1134 2.32169 25.7179 3.06585C26.3223 3.81 26.2091 4.90329 25.465 5.50778L12.1376 16.3337C11.3934 16.9382 10.3001 16.825 9.69564 16.0809C9.09115 15.3367 9.20438 14.2434 9.94854 13.6389L23.2759 2.81295Z" fill="#FF0000"/>
<path d="M20.9111 0.117598C21.1362 -0.0653256 21.4671 -0.0310799 21.65 0.194088L23.7407 2.76758C23.9236 2.99275 23.8893 3.32357 23.6642 3.50649L21.6257 5.16256C21.4005 5.34548 21.0697 5.31123 20.8867 5.08607L18.7961 2.51258C18.6132 2.28741 18.6474 1.95658 18.8726 1.77366L20.9111 0.117598Z" fill="#FF0000"/>
<path d="M16.7996 3.2693C17.0248 3.08638 17.3556 3.12062 17.5385 3.34579L19.6292 5.91928C19.8121 6.14445 19.7779 6.47527 19.5527 6.6582L17.5142 8.31426C17.289 8.49718 16.9582 8.46294 16.7753 8.23777L14.6846 5.66428C14.5017 5.43911 14.5359 5.10829 14.7611 4.92536L16.7996 3.2693Z" fill="#FF0000"/>
</svg>
