<svg width="32" height="32" viewBox="0 0 32 32" fill="none" xmlns="http://www.w3.org/2000/svg">
<rect width="32" height="32" rx="5" fill="white"/>
<path d="M14.1269 8.36915C13.9763 7.1811 11.4481 4.10075 10.3159 4.00641V4.00624C9.68244 3.96719 9.05132 4.11197 8.49831 4.42335C7.43048 4.98592 6.13211 5.92807 5.63776 6.76519C3.83173 9.82218 5.95682 15.3437 10.8056 20.1924C14.4987 23.8855 18.5813 25.9985 21.6686 25.9985C22.5652 26.0206 23.4512 25.8002 24.2331 25.3607C25.0702 24.866 26.0125 23.5677 26.5751 22.5002C26.8861 21.9472 27.0309 21.3161 26.992 20.6827C26.8975 19.5503 23.8173 17.0221 22.6289 16.8716C22.3445 16.8353 21.4769 16.7264 18.8875 19.0068V19.0069C18.8199 19.0653 18.7205 19.0671 18.6508 19.0116C17.4226 18.0268 16.2522 16.9722 15.1448 15.8532C14.0258 14.746 12.9713 13.5755 11.9865 12.3474C11.9307 12.278 11.9326 12.1784 11.9911 12.111C14.2724 9.52059 14.1625 8.65383 14.1266 8.3692L14.1269 8.36915ZM11.0287 13.1048C12.0428 14.3702 13.1289 15.5762 14.2815 16.7168C15.4222 17.8694 16.6283 18.9555 17.8938 19.9696C18.1518 20.1741 18.4734 20.2813 18.8025 20.273C19.1316 20.2646 19.4472 20.141 19.6945 19.9238C21.4693 18.3609 22.3146 18.0674 22.4758 18.0833C23.1502 18.1687 25.5653 20.1635 25.7766 20.8051H25.7768C25.7892 21.1991 25.6915 21.589 25.4946 21.9307C24.9515 22.9615 24.1246 24.0062 23.6121 24.309C21.4905 25.5629 16.5838 24.2432 11.6692 19.3289C6.75497 14.4147 5.43573 9.50793 6.68949 7.38633C6.99217 6.87408 8.0368 6.04718 9.06766 5.50408V5.50391C9.37954 5.32741 9.72963 5.22919 10.0877 5.2181C10.1232 5.2181 10.1585 5.2193 10.1935 5.22168C10.835 5.43296 12.8298 7.84811 12.9152 8.52218C12.9333 8.69407 12.6378 9.52894 11.0749 11.3036C10.8573 11.5509 10.7337 11.8667 10.7252 12.1958C10.7168 12.5251 10.8243 12.8467 11.0289 13.1047L11.0287 13.1048Z" fill="#3F4450"/>
</svg>
