<svg width="21" height="21" viewBox="0 0 21 21" fill="none" xmlns="http://www.w3.org/2000/svg">
<path d="M19.7497 8.2C17.3542 13.4174 13.0917 17.5655 7.79226 19.8142L6.94277 20.1927C4.99926 21.0587 2.71456 20.4008 1.52915 18.6339L0.419041 16.9793C0.058115 16.4413 0.168001 15.7167 0.672205 15.31L4.43701 12.2727C4.98999 11.8266 5.80313 11.9305 6.22616 12.5014L7.39082 14.0729C10.3793 12.5988 12.8056 10.1724 14.2798 7.18393L12.7083 6.01928C12.1374 5.59625 12.0335 4.78311 12.4796 4.23013L15.517 0.465201C15.9237 -0.0389008 16.648 -0.14886 17.186 0.211851L18.852 1.32897C20.63 2.52111 21.2842 4.82467 20.3983 6.77336L19.7507 8.19787L19.7497 8.2Z" fill="#C21807"/>
</svg>
