<svg width="20" height="16" viewBox="0 0 20 16" fill="none" xmlns="http://www.w3.org/2000/svg">
<path d="M5.28949 0.907491C8.42413 0.635003 11.5765 0.635003 14.7111 0.907491L16.2214 1.03877C17.2267 1.12617 18.0878 1.72584 18.534 2.58361C18.591 2.69335 18.5483 2.82621 18.4431 2.89132L12.1771 6.77024C10.8333 7.60216 9.13874 7.61962 7.77802 6.81556L1.4702 3.0882C1.36829 3.02798 1.32151 2.90402 1.36744 2.79492C1.77559 1.82536 2.69322 1.13318 3.77925 1.03877L5.28949 0.907491Z" fill="#3F4450"/>
<path d="M1.3623 4.76676C1.20634 4.6746 1.00734 4.77377 0.989156 4.95402C0.735421 7.46965 0.796831 10.0091 1.17339 12.5132C1.3719 13.8333 2.44931 14.8454 3.77926 14.961L5.28949 15.0923C8.42413 15.3647 11.5765 15.3647 14.7111 15.0923L16.2214 14.961C17.5513 14.8454 18.6287 13.8333 18.8272 12.5132C19.2148 9.93613 19.2685 7.32162 18.9885 4.73415C18.9688 4.55264 18.7665 4.45529 18.6112 4.55139L12.9667 8.04564C11.1485 9.17118 8.8559 9.19479 7.01493 8.10695L1.3623 4.76676Z" fill="#3F4450"/>
</svg>
