<svg width="48" height="50" viewBox="0 0 48 50" fill="none" xmlns="http://www.w3.org/2000/svg">
<path d="M47.5933 37.7004C47.5933 44.3278 42.2208 49.7004 35.5933 49.7004C28.9659 49.7004 23.5933 44.3278 23.5933 37.7004C23.5933 31.073 28.9659 25.7004 35.5933 25.7004C42.2208 25.7004 47.5933 31.073 47.5933 37.7004ZM31.0702 37.7004C31.0702 40.1984 33.0953 42.2235 35.5933 42.2235C38.0914 42.2235 40.1165 40.1984 40.1165 37.7004C40.1165 35.2023 38.0914 33.1773 35.5933 33.1773C33.0953 33.1773 31.0702 35.2023 31.0702 37.7004Z" fill="#B6BCC5"/>
<path d="M5.3551 5.38854C4.20432 3.97187 4.41988 1.89054 5.83655 0.739759C7.25323 -0.41102 9.33456 -0.195468 10.4853 1.22121L31.0951 26.593C32.2459 28.0097 32.0303 30.091 30.6137 31.2418C29.197 32.3926 27.1156 32.177 25.9649 30.7604L5.3551 5.38854Z" fill="#B6BCC5"/>
<path d="M0.223876 9.8906C-0.124362 9.46194 -0.0591675 8.83214 0.369492 8.4839L5.26873 4.50382C5.69739 4.15558 6.32719 4.22077 6.67543 4.64943L9.82813 8.53022C10.1764 8.95888 10.1112 9.58868 9.68252 9.93691L4.78327 13.917C4.35462 14.2652 3.72482 14.2 3.37658 13.7714L0.223876 9.8906Z" fill="#B6BCC5"/>
<path d="M6.22388 17.7177C5.87564 17.2891 5.94083 16.6593 6.36949 16.3111L11.2687 12.331C11.6974 11.9827 12.3272 12.0479 12.6754 12.4766L15.8281 16.3574C16.1764 16.786 16.1112 17.4158 15.6825 17.7641L10.7833 21.7441C10.3546 22.0924 9.72482 22.0272 9.37658 21.5985L6.22388 17.7177Z" fill="#B6BCC5"/>
</svg>
