<svg width="35" height="33" viewBox="0 0 35 33" fill="none" xmlns="http://www.w3.org/2000/svg">
<path d="M26.1405 -1.14264e-06C30.7358 -1.3435e-06 34.461 3.72521 34.461 8.32049C34.461 12.9158 30.7358 16.641 26.1405 16.641C21.5452 16.641 17.82 12.9158 17.82 8.32049C17.82 3.72521 21.5452 -9.41771e-07 26.1405 -1.14264e-06ZM26.1405 11.4567C27.8726 11.4567 29.2767 10.0526 29.2767 8.32049C29.2767 6.58841 27.8726 5.18428 26.1405 5.18428C24.4084 5.18428 23.0043 6.58841 23.0043 8.32049C23.0043 10.0526 24.4084 11.4567 26.1405 11.4567Z" fill="#C21807"/>
<path d="M3.73628 29.2869C2.75399 30.0848 1.31085 29.9354 0.51293 28.9531C-0.284991 27.9708 -0.135533 26.5277 0.846753 25.7297L18.4389 11.4394C19.4212 10.6415 20.8643 10.791 21.6623 11.7733C22.4602 12.7556 22.3107 14.1987 21.3284 14.9966L3.73628 29.2869Z" fill="#C21807"/>
<path d="M6.85789 32.8448C6.56067 33.0862 6.12398 33.041 5.88252 32.7438L3.12283 29.3468C2.88137 29.0496 2.92658 28.6129 3.2238 28.3714L5.91463 26.1854C6.21185 25.944 6.64854 25.9892 6.89 26.2864L9.64969 29.6834C9.89115 29.9806 9.84595 30.4173 9.54872 30.6588L6.85789 32.8448Z" fill="#C21807"/>
<path d="M12.285 28.6845C11.9878 28.926 11.5511 28.8808 11.3097 28.5836L8.54998 25.1865C8.30852 24.8893 8.35372 24.4526 8.65094 24.2112L11.3418 22.0252C11.639 21.7837 12.0757 21.8289 12.3171 22.1261L15.0768 25.5232C15.3183 25.8204 15.2731 26.2571 14.9759 26.4985L12.285 28.6845Z" fill="#C21807"/>
</svg>
