<svg width="27" height="25" viewBox="0 0 27 25" fill="none" xmlns="http://www.w3.org/2000/svg">
<path d="M6.30354 25C2.82226 25 0.000134452 22.1779 0.000134604 18.6966C0.000134757 15.2153 2.82227 12.3932 6.30354 12.3932C9.78481 12.3932 12.6069 15.2153 12.6069 18.6966C12.6069 22.1779 9.78481 25 6.30354 25ZM6.30354 16.3207C4.99136 16.3207 3.92762 17.3844 3.92762 18.6966C3.92762 20.0088 4.99135 21.0725 6.30354 21.0725C7.61572 21.0725 8.67946 20.0088 8.67946 18.6966C8.67946 17.3844 7.61572 16.3207 6.30354 16.3207Z" fill="#FF0000"/>
<path d="M23.2764 2.81295C24.0206 2.20846 25.1139 2.32169 25.7184 3.06585C26.3228 3.81 26.2096 4.90329 25.4655 5.50778L12.1381 16.3337C11.3939 16.9382 10.3006 16.825 9.69613 16.0809C9.09164 15.3367 9.20487 14.2434 9.94902 13.6389L23.2764 2.81295Z" fill="#FF0000"/>
<path d="M20.9116 0.117598C21.1367 -0.0653256 21.4676 -0.0310799 21.6505 0.194088L23.7412 2.76758C23.9241 2.99275 23.8898 3.32357 23.6647 3.50649L21.6262 5.16256C21.401 5.34548 21.0702 5.31123 20.8872 5.08607L18.7966 2.51258C18.6136 2.28741 18.6479 1.95658 18.8731 1.77366L20.9116 0.117598Z" fill="#FF0000"/>
<path d="M16.8001 3.2693C17.0253 3.08638 17.3561 3.12062 17.539 3.34579L19.6297 5.91928C19.8126 6.14445 19.7784 6.47527 19.5532 6.6582L17.5147 8.31426C17.2895 8.49718 16.9587 8.46294 16.7758 8.23777L14.6851 5.66428C14.5022 5.43911 14.5364 5.10829 14.7616 4.92536L16.8001 3.2693Z" fill="#FF0000"/>
</svg>
