<svg width="194" height="48" viewBox="0 0 194 48" fill="none" xmlns="http://www.w3.org/2000/svg">
<path d="M56.2693 37.1281H34.6583C34.4657 37.128 34.2808 37.204 34.1434 37.3396C34.0061 37.4752 33.9272 37.6596 33.9239 37.8531V46.431C33.923 46.5281 33.9414 46.6244 33.978 46.7143C34.0146 46.8042 34.0687 46.8859 34.1371 46.9546C34.2054 47.0233 34.2867 47.0776 34.3762 47.1143C34.4657 47.1511 34.5616 47.1696 34.6583 47.1688H56.2693C56.3657 47.1688 56.4613 47.1497 56.5504 47.1126C56.6395 47.0755 56.7204 47.0212 56.7886 46.9527C56.8568 46.8842 56.9109 46.8028 56.9478 46.7133C56.9847 46.6238 57.0037 46.5278 57.0037 46.431V37.8531C57.0037 37.6568 56.9266 37.4684 56.789 37.3291C56.6515 37.1897 56.4647 37.1105 56.2693 37.1088" fill="#3F4450"/>
<path d="M34.6583 10.0407H56.2693C56.4641 10.0407 56.6509 9.96295 56.7886 9.82459C56.9263 9.68622 57.0037 9.49855 57.0037 9.30287V0.737814C57.0021 0.542652 56.9241 0.355958 56.7868 0.217952C56.6494 0.079947 56.4636 0.0016753 56.2693 0L34.6583 0C34.4635 0 34.2767 0.0777337 34.139 0.216101C34.0012 0.354468 33.9239 0.542134 33.9239 0.737814V9.30287C33.923 9.4 33.9414 9.49633 33.978 9.58623C34.0146 9.67613 34.0687 9.75781 34.1371 9.82649C34.2054 9.89518 34.2867 9.94949 34.3762 9.98627C34.4657 10.023 34.5616 10.0415 34.6583 10.0407Z" fill="#3F4450"/>
<path d="M11.0803 22.1922L28.7382 1.21909C28.8292 1.11294 28.8881 0.982976 28.9083 0.84439C28.9284 0.705805 28.9089 0.564322 28.852 0.436477C28.795 0.308632 28.7031 0.199707 28.5868 0.122431C28.4705 0.0451558 28.3348 0.00272285 28.1954 9.16204e-05H16.2659C16.1541 4.37384e-05 16.0437 0.0254146 15.9431 0.0743029C15.8425 0.123191 15.7541 0.194329 15.6847 0.282386L0.785646 19.1833C0.684463 19.3132 0.630398 19.4738 0.632377 19.6388V30.9626C0.63262 31.1142 0.67934 31.2621 0.766182 31.386C0.853024 31.51 0.975773 31.6041 1.11773 31.6555C1.2571 31.7048 1.40812 31.7104 1.55071 31.6714C1.6933 31.6325 1.82071 31.5508 1.91601 31.4374L3.67223 29.3266L16.8917 46.8801C16.9608 46.9711 17.0497 47.0449 17.1515 47.096C17.2533 47.1472 17.3654 47.1743 17.4793 47.1753H29.4279C29.5666 47.1741 29.7022 47.1339 29.8193 47.0591C29.9363 46.9844 30.0302 46.8781 30.0901 46.7524C30.1499 46.6267 30.1735 46.4867 30.1581 46.3482C30.1426 46.2097 30.0888 46.0784 30.0027 45.9691L11.0803 22.1922Z" fill="#3F4450"/>
<path d="M93.6034 7.43347e-06H82.5552C82.4274 -0.00209582 82.3012 0.0293508 82.1892 0.0912381C82.0772 0.153125 81.9832 0.24331 81.9166 0.352875L71.3537 17.6755L63.339 4.66428C63.2593 4.51538 63.1315 4.39819 62.9766 4.332C62.8217 4.26582 62.6491 4.25458 62.487 4.30014C62.3249 4.3457 62.1831 4.44534 62.0849 4.58266C61.9868 4.71998 61.938 4.88679 61.9468 5.05564V21.8521C61.9486 21.9956 61.9907 22.1357 62.0681 22.2563L65.7786 27.9471V46.431C65.7785 46.5284 65.7978 46.6249 65.8351 46.7148C65.8724 46.8047 65.927 46.8864 65.9959 46.955C66.0648 47.0236 66.1465 47.0778 66.2363 47.1145C66.3262 47.1512 66.4224 47.1696 66.5194 47.1688H76.2009C76.2973 47.1688 76.3928 47.1497 76.4819 47.1126C76.571 47.0755 76.652 47.0212 76.7202 46.9527C76.7884 46.8842 76.8425 46.8028 76.8794 46.7133C76.9163 46.6238 76.9353 46.5279 76.9353 46.431V27.9471L94.2228 1.14202C94.289 1.02693 94.3238 0.896377 94.3238 0.763485C94.3238 0.630593 94.289 0.500042 94.2228 0.384954C94.1602 0.269419 94.068 0.172807 93.9557 0.105123C93.8434 0.0374402 93.7152 0.0011484 93.5842 7.43347e-06" fill="#3F4450"/>
<path d="M56.2821 18.2208H34.6583C34.5613 18.2208 34.4653 18.2401 34.3757 18.2776C34.2862 18.315 34.205 18.37 34.1367 18.4392C34.0684 18.5084 34.0144 18.5904 33.9779 18.6807C33.9414 18.771 33.923 18.8676 33.9239 18.965V27.5237C33.923 27.6211 33.9414 27.7177 33.9779 27.808C34.0144 27.8982 34.0684 27.9803 34.1367 28.0495C34.205 28.1187 34.2862 28.1736 34.3757 28.2111C34.4653 28.2486 34.5613 28.2679 34.6583 28.2679H56.2821C56.3791 28.2679 56.4751 28.2486 56.5646 28.2111C56.6541 28.1736 56.7354 28.1187 56.8037 28.0495C56.8719 27.9803 56.9259 27.8982 56.9624 27.808C56.999 27.7177 57.0173 27.6211 57.0165 27.5237V18.965C57.0173 18.8676 56.999 18.771 56.9624 18.6807C56.9259 18.5904 56.8719 18.5084 56.8037 18.4392C56.7354 18.37 56.6541 18.315 56.5646 18.2776C56.4751 18.2401 56.3791 18.2208 56.2821 18.2208Z" fill="#3F4450"/>
<path d="M126.486 5.14537e-10H116.804C116.61 0.0016753 116.424 0.0799469 116.287 0.217952C116.15 0.355958 116.072 0.542652 116.07 0.737814V27.1965L98.1311 2.75878C98.0374 2.63616 97.908 2.5459 97.7609 2.50053C97.6138 2.45516 97.4563 2.45694 97.3102 2.50561C97.1642 2.55428 97.0368 2.64744 96.9459 2.77214C96.8549 2.89684 96.8049 3.0469 96.8027 3.20147V19.4911C96.8037 19.6486 96.8552 19.8017 96.9496 19.9274L116.555 46.8736C116.622 46.9676 116.71 47.044 116.812 47.0965C116.915 47.149 117.028 47.176 117.143 47.1752H126.486C126.583 47.176 126.679 47.1576 126.769 47.1209C126.859 47.0842 126.941 47.03 127.009 46.9614C127.078 46.8928 127.133 46.8111 127.17 46.7212C127.208 46.6313 127.227 46.5348 127.227 46.4374V0.737814C127.225 0.541546 127.146 0.353892 127.008 0.215707C126.869 0.0775211 126.681 -7.29285e-06 126.486 5.14537e-10" fill="#C21807"/>
<path d="M193.573 46.0075L177.371 22.9107L192.552 1.16125C192.628 1.05056 192.673 0.921078 192.682 0.786614C192.691 0.652151 192.664 0.517756 192.603 0.397774C192.541 0.280283 192.45 0.181445 192.337 0.111504C192.225 0.041563 192.096 0.00306355 191.964 -3.90166e-06H180.284C180.158 -0.00413581 180.033 0.0243861 179.921 0.0828164C179.809 0.141247 179.714 0.227618 179.645 0.333616L169.957 15.0257L162.006 3.08598C161.919 2.95321 161.792 2.85229 161.643 2.79826C161.494 2.74423 161.331 2.73997 161.18 2.78614C161.028 2.8323 160.896 2.92641 160.802 3.05444C160.708 3.18246 160.658 3.33755 160.659 3.49659V19.9659C160.662 20.117 160.709 20.264 160.793 20.3893L162.613 23.0005L160.799 25.5669C160.71 25.6898 160.66 25.8379 160.659 25.9903V42.2543C160.659 42.412 160.709 42.5657 160.802 42.6927C160.895 42.8197 161.026 42.9134 161.176 42.96C161.327 43.0072 161.489 43.0046 161.638 42.9526C161.788 42.9007 161.917 42.8021 162.006 42.6713L169.989 31.0203L180.769 46.8351C180.836 46.935 180.926 47.0165 181.032 47.0725C181.138 47.1285 181.256 47.1572 181.376 47.1559H192.973C193.107 47.1557 193.239 47.1185 193.354 47.0484C193.468 46.9783 193.562 46.8779 193.624 46.7582C193.686 46.6384 193.714 46.504 193.705 46.3694C193.696 46.2347 193.65 46.1052 193.573 45.9947" fill="#C21807"/>
<path d="M154.828 18.2208H133.204C133.008 18.2208 132.819 18.2992 132.68 18.4388C132.541 18.5783 132.463 18.7676 132.463 18.965V27.5237C132.463 27.721 132.541 27.9103 132.68 28.0499C132.819 28.1895 133.008 28.2679 133.204 28.2679H154.828C155.023 28.2662 155.21 28.187 155.348 28.0477C155.485 27.9083 155.562 27.7199 155.562 27.5237V18.965C155.562 18.7687 155.485 18.5804 155.348 18.441C155.21 18.3016 155.023 18.2225 154.828 18.2208Z" fill="#C21807"/>
<path d="M154.809 37.1281H133.204C133.011 37.128 132.825 37.2038 132.687 37.3392C132.549 37.4746 132.468 37.659 132.463 37.8531V46.431C132.463 46.5284 132.483 46.6249 132.52 46.7148C132.557 46.8047 132.612 46.8863 132.681 46.9549C132.75 47.0235 132.831 47.0778 132.921 47.1145C133.011 47.1512 133.107 47.1696 133.204 47.1688H154.809C154.906 47.1696 155.001 47.1511 155.091 47.1143C155.18 47.0776 155.262 47.0233 155.33 46.9546C155.398 46.8859 155.452 46.8042 155.489 46.7143C155.526 46.6244 155.544 46.5281 155.543 46.431V37.8531C155.544 37.7556 155.526 37.659 155.489 37.5687C155.453 37.4785 155.399 37.3964 155.33 37.3272C155.262 37.258 155.181 37.2031 155.091 37.1656C155.002 37.1281 154.906 37.1088 154.809 37.1088" fill="#C21807"/>
<path d="M133.204 10.0407H154.809C154.906 10.0415 155.001 10.023 155.091 9.98627C155.18 9.94949 155.262 9.89518 155.33 9.82649C155.398 9.75781 155.452 9.67613 155.489 9.58623C155.526 9.49633 155.544 9.4 155.543 9.30287V0.737814C155.543 0.542134 155.466 0.354468 155.328 0.216101C155.19 0.0777337 155.004 5.14538e-10 154.809 5.14538e-10L133.204 5.14537e-10C133.009 -7.29285e-06 132.821 0.0775211 132.683 0.215707C132.544 0.353892 132.465 0.541546 132.463 0.737814V9.30287C132.463 9.40031 132.483 9.49677 132.52 9.58671C132.557 9.67665 132.612 9.75827 132.681 9.82687C132.75 9.89546 132.831 9.94968 132.921 9.98638C133.011 10.0231 133.107 10.0415 133.204 10.0407Z" fill="#C21807"/>
</svg>
