<svg width="50" height="50" viewBox="0 0 50 50" fill="none" xmlns="http://www.w3.org/2000/svg">
<circle cx="25" cy="25" r="25" fill="#C21807"/>
<g clip-path="url(#clip0_1_26620)">
<path d="M23 17.278C23.0976 17.3966 23.1574 17.5418 23.1717 17.6947C23.1859 17.8477 23.154 18.0014 23.08 18.136C22.5019 19.1975 22.1999 20.3873 22.202 21.596C22.202 25.617 25.48 28.873 29.52 28.873C30.047 28.873 30.56 28.818 31.053 28.713C31.2041 28.6803 31.3615 28.6928 31.5056 28.749C31.6497 28.8052 31.774 28.9026 31.863 29.029C31.957 29.1604 32.0049 29.3193 31.9993 29.4808C31.9937 29.6423 31.9349 29.7974 31.832 29.922C31.0477 30.8854 30.0582 31.6617 28.9358 32.1942C27.8134 32.7267 26.5863 33.002 25.344 33C20.734 33 17 29.286 17 24.71C17 21.266 19.114 18.312 22.124 17.06C22.2739 16.9966 22.4404 16.9836 22.5983 17.0229C22.7563 17.0622 22.8973 17.1517 23 17.278V17.278Z" fill="white"/>
</g>
<defs>
<clipPath id="clip0_1_26620">
<rect width="16" height="16" fill="white" transform="translate(17 17)"/>
</clipPath>
</defs>
</svg>
