<svg width="17" height="16" viewBox="0 0 17 16" fill="none" xmlns="http://www.w3.org/2000/svg">
<path d="M14.3663 8.79171C14.1921 8.79171 14.01 8.73629 13.8358 8.69671C13.4834 8.6179 13.1369 8.51474 12.7988 8.38796C12.4315 8.25435 12.0278 8.26129 11.6653 8.40744C11.3029 8.55359 11.0073 8.82863 10.8354 9.17962L10.6613 9.54379C9.89242 9.10774 9.18214 8.5757 8.54751 7.96046C7.93227 7.32584 7.40023 6.61556 6.96418 5.84671L7.32835 5.68046C7.67935 5.5086 7.95438 5.213 8.10053 4.85055C8.24669 4.48809 8.25362 4.08439 8.12002 3.71712C7.99429 3.37594 7.89115 3.02685 7.81126 2.67212C7.77168 2.49796 7.74001 2.31587 7.71626 2.14171C7.62013 1.58407 7.32805 1.07909 6.89263 0.717688C6.45721 0.356291 5.90707 0.162231 5.34126 0.170457H2.95835C2.62367 0.170019 2.29267 0.24032 1.98707 0.376753C1.68146 0.513185 1.40813 0.712668 1.18501 0.962124C0.957267 1.21835 0.787689 1.52084 0.687929 1.84882C0.58817 2.1768 0.560594 2.52248 0.607097 2.86212C1.03744 6.15715 2.54289 9.21814 4.89001 11.5705C7.24233 13.9176 10.3033 15.423 13.5983 15.8534C13.7011 15.8612 13.8043 15.8612 13.9071 15.8534C14.4909 15.8542 15.0545 15.64 15.4904 15.2517C15.7399 15.0286 15.9394 14.7553 16.0758 14.4497C16.2122 14.144 16.2825 13.8131 16.2821 13.4784V11.1034C16.2778 10.5564 16.0849 10.0276 15.7358 9.60641C15.3867 9.18522 14.903 8.89745 14.3663 8.79171ZM14.7542 13.5417C14.7539 13.6522 14.7305 13.7614 14.6855 13.8623C14.6406 13.9632 14.5749 14.0535 14.4929 14.1275C14.4062 14.2066 14.3029 14.2654 14.1906 14.2996C14.0784 14.3338 13.9599 14.3427 13.8438 14.3255C10.8895 13.9396 8.14396 12.5933 6.03001 10.4938C3.91426 8.37803 2.5562 5.62296 2.16668 2.65629C2.14948 2.54018 2.15832 2.4217 2.19255 2.30942C2.22678 2.19715 2.28555 2.09389 2.3646 2.00712C2.43951 1.92412 2.53115 1.85792 2.63349 1.81289C2.73583 1.76786 2.84654 1.74502 2.95835 1.74587H5.33335C5.51635 1.7414 5.69525 1.80049 5.83959 1.91307C5.98393 2.02566 6.0848 2.18479 6.12501 2.36337C6.12501 2.57712 6.19626 2.79879 6.24376 3.01254C6.33526 3.42727 6.45698 3.83474 6.60793 4.23171L5.4996 4.75421C5.30909 4.84166 5.16105 5.00109 5.08793 5.19754C5.00875 5.39028 5.00875 5.60647 5.08793 5.79921C6.2273 8.23972 8.18908 10.2015 10.6296 11.3409C10.8223 11.4201 11.0385 11.4201 11.2313 11.3409C11.4277 11.2678 11.5871 11.1197 11.6746 10.9292L12.1733 9.82087C12.5818 9.9698 12.9996 10.0915 13.4242 10.185C13.63 10.2325 13.8517 10.2721 14.0654 10.3038C14.244 10.344 14.4031 10.4449 14.5157 10.5892C14.6283 10.7336 14.6874 10.9125 14.6829 11.0955L14.7542 13.5417ZM10.0833 0.083374C9.90127 0.083374 9.71126 0.083374 9.52918 0.083374C9.31922 0.101221 9.12494 0.201744 8.9891 0.36283C8.85325 0.523916 8.78696 0.732369 8.80481 0.942332C8.82265 1.1523 8.92318 1.34657 9.08426 1.48242C9.24535 1.61826 9.4538 1.68455 9.66376 1.66671H10.0833C11.3431 1.66671 12.5513 2.16715 13.4421 3.05795C14.3329 3.94875 14.8333 5.15693 14.8333 6.41671C14.8333 6.55921 14.8333 6.69379 14.8333 6.83629C14.8158 7.04514 14.8818 7.25243 15.0168 7.4127C15.1519 7.57298 15.345 7.67316 15.5538 7.69129H15.6171C15.8153 7.69209 16.0066 7.61854 16.1531 7.48515C16.2997 7.35177 16.3909 7.16825 16.4088 6.97087C16.4088 6.78879 16.4088 6.59879 16.4088 6.41671C16.4088 4.73837 15.7426 3.12866 14.5566 1.94116C13.3706 0.753658 11.7617 0.0854719 10.0833 0.083374ZM11.6667 6.41671C11.6667 6.62667 11.7501 6.82803 11.8986 6.9765C12.047 7.12497 12.2484 7.20837 12.4583 7.20837C12.6683 7.20837 12.8697 7.12497 13.0181 6.9765C13.1666 6.82803 13.25 6.62667 13.25 6.41671C13.25 5.57686 12.9164 4.7714 12.3225 4.17754C11.7287 3.58367 10.9232 3.25004 10.0833 3.25004C9.87339 3.25004 9.67202 3.33345 9.52356 3.48191C9.37509 3.63038 9.29168 3.83174 9.29168 4.04171C9.29168 4.25167 9.37509 4.45303 9.52356 4.6015C9.67202 4.74997 9.87339 4.83337 10.0833 4.83337C10.5033 4.83337 10.906 5.00019 11.2029 5.29712C11.4999 5.59405 11.6667 5.99678 11.6667 6.41671Z" fill="#A81007"/>
</svg>
