<svg width="59" height="45" viewBox="0 0 59 45" fill="none" xmlns="http://www.w3.org/2000/svg">
<path d="M56.6674 0V3.3009C51.9109 5.00748 48.1833 7.7021 45.4849 11.3847C42.7864 15.0225 41.4372 18.8174 41.4372 22.7695C41.4372 23.6228 41.5744 24.2515 41.8488 24.6557C42.0318 24.9251 42.2376 25.0599 42.4663 25.0599C42.695 25.0599 43.038 24.9027 43.4953 24.5883C44.9589 23.5554 46.8112 23.0389 49.0523 23.0389C51.6593 23.0389 53.969 24.0943 55.9814 26.2051C57.9938 28.271 59 30.741 59 33.6153C59 36.6243 57.8337 39.274 55.5012 41.5644C53.2143 43.8548 50.4244 45 47.1314 45C43.2895 45 39.9736 43.4506 37.1837 40.3518C34.3938 37.253 32.9988 33.0988 32.9988 27.8892C32.9988 21.8263 34.8969 16.3922 38.693 11.5868C42.4891 6.78144 48.4806 2.91916 56.6674 0ZM23.6686 0V3.3009C18.912 5.00748 15.1845 7.7021 12.486 11.3847C9.7876 15.0225 8.43837 18.8174 8.43837 22.7695C8.43837 23.6228 8.57558 24.2515 8.85 24.6557C9.03295 24.9251 9.23876 25.0599 9.46744 25.0599C9.69612 25.0599 10.0391 24.9027 10.4965 24.5883C11.9601 23.5554 13.8124 23.0389 16.0535 23.0389C18.6605 23.0389 20.9702 24.0943 22.9826 26.2051C24.995 28.271 26.0012 30.741 26.0012 33.6153C26.0012 36.6243 24.8349 39.274 22.5023 41.5644C20.2155 43.8548 17.4256 45 14.1326 45C10.2907 45 6.97481 43.4506 4.18488 40.3518C1.39496 37.253 0 33.0988 0 27.8892C0 21.8263 1.89806 16.3922 5.69419 11.5868C9.49031 6.78144 15.4818 2.91916 23.6686 0Z" fill="#B6BCC5"/>
</svg>
