<svg width="24" height="24" viewBox="0 0 24 24" fill="none" xmlns="http://www.w3.org/2000/svg">
<path d="M19.4998 18.6666H18.6665V6.16663C18.6665 5.94561 18.5787 5.73365 18.4224 5.57737C18.2661 5.42109 18.0542 5.33329 17.8332 5.33329C17.6122 5.33329 17.4002 5.42109 17.2439 5.57737C17.0876 5.73365 16.9998 5.94561 16.9998 6.16663V18.6666H15.3332V9.49996C15.3332 9.27895 15.2454 9.06698 15.0891 8.9107C14.9328 8.75442 14.7209 8.66663 14.4998 8.66663C14.2788 8.66663 14.0669 8.75442 13.9106 8.9107C13.7543 9.06698 13.6665 9.27895 13.6665 9.49996V18.6666H11.9998V12.8333C11.9998 12.6123 11.912 12.4003 11.7558 12.244C11.5995 12.0878 11.3875 12 11.1665 12C10.9455 12 10.7335 12.0878 10.5772 12.244C10.421 12.4003 10.3332 12.6123 10.3332 12.8333V18.6666H8.6665V16.1666C8.6665 15.9456 8.57871 15.7337 8.42243 15.5774C8.26615 15.4211 8.05418 15.3333 7.83317 15.3333C7.61216 15.3333 7.4002 15.4211 7.24392 15.5774C7.08764 15.7337 6.99984 15.9456 6.99984 16.1666V18.6666H5.33317V4.49996C5.33317 4.27895 5.24537 4.06698 5.08909 3.9107C4.93281 3.75442 4.72085 3.66663 4.49984 3.66663C4.27882 3.66663 4.06686 3.75442 3.91058 3.9107C3.7543 4.06698 3.6665 4.27895 3.6665 4.49996V19.5C3.6665 19.721 3.7543 19.9329 3.91058 20.0892C4.06686 20.2455 4.27882 20.3333 4.49984 20.3333H19.4998C19.7209 20.3333 19.9328 20.2455 20.0891 20.0892C20.2454 19.9329 20.3332 19.721 20.3332 19.5C20.3332 19.2789 20.2454 19.067 20.0891 18.9107C19.9328 18.7544 19.7209 18.6666 19.4998 18.6666Z" fill="white"/>
</svg>
