<svg width="21" height="20" viewBox="0 0 21 20" fill="none" xmlns="http://www.w3.org/2000/svg">
<path d="M19.7663 19.6285C19.518 19.8762 19.2207 20 18.8743 20C18.528 20 18.2307 19.8762 17.9823 19.6285L14.1006 15.7576C12.5323 16.9176 10.7809 17.4976 8.84661 17.4976C7.65727 17.4976 6.52021 17.2662 5.43543 16.8035C4.35064 16.3408 3.41616 15.7185 2.63198 14.9365C1.84779 14.1544 1.22372 13.2258 0.759743 12.1505C0.295769 11.0753 0.0637817 9.94135 0.0637817 8.74878C0.0637817 7.55621 0.295769 6.41903 0.759743 5.33724C1.22372 4.25546 1.84779 3.32682 2.63198 2.55132C3.41616 1.77582 4.35064 1.15673 5.43543 0.694037C6.52021 0.231346 7.65727 0 8.84661 0C10.036 0 11.173 0.231346 12.2578 0.694037C13.3426 1.15673 14.2771 1.77582 15.0613 2.55132C15.8454 3.32682 16.4695 4.25546 16.9335 5.33724C17.3975 6.41903 17.6294 7.55295 17.6294 8.739C17.6294 10.681 17.0478 12.4275 15.8846 13.9785L19.7663 17.8495C20.0147 18.0971 20.1388 18.3936 20.1388 18.739C20.1388 19.0844 20.0147 19.3809 19.7663 19.6285ZM8.84661 2.50244C7.70955 2.50244 6.66071 2.77941 5.70009 3.33333C4.73946 3.88726 3.97815 4.64646 3.41616 5.61095C2.85416 6.57543 2.57316 7.62138 2.57316 8.74878C2.57316 9.87618 2.85416 10.9221 3.41616 11.8866C3.97815 12.8511 4.73946 13.6103 5.70009 14.1642C6.66071 14.7181 7.70955 14.9951 8.84661 14.9951C9.98368 14.9951 11.0325 14.7181 11.9931 14.1642C12.9538 13.6103 13.7151 12.8511 14.2771 11.8866C14.8391 10.9221 15.1201 9.87618 15.1201 8.74878C15.1201 7.62138 14.8391 6.57543 14.2771 5.61095C13.7151 4.64646 12.9538 3.88726 11.9931 3.33333C11.0325 2.77941 9.98368 2.50244 8.84661 2.50244Z" fill="white"/>
</svg>
