<svg width="21" height="21" viewBox="0 0 21 21" fill="none" xmlns="http://www.w3.org/2000/svg">
<path d="M19.5427 8.2C17.1472 13.4174 12.8847 17.5655 7.58523 19.8142L6.73574 20.1927C4.79222 21.0587 2.50753 20.4008 1.32212 18.6339L0.212009 16.9793C-0.148916 16.4413 -0.0390301 15.7167 0.465174 15.31L4.22998 12.2727C4.78296 11.8266 5.5961 11.9305 6.01913 12.5014L7.18379 14.0729C10.1723 12.5988 12.5986 10.1724 14.0728 7.18393L12.5012 6.01928C11.9304 5.59625 11.8265 4.78311 12.2726 4.23013L15.3099 0.465201C15.7166 -0.0389008 16.441 -0.14886 16.979 0.211851L18.645 1.32897C20.4229 2.52111 21.0772 4.82467 20.1913 6.77336L19.5436 8.19787L19.5427 8.2Z" fill="#C21807"/>
</svg>
