<svg width="28" height="16" viewBox="0 0 28 16" fill="none" xmlns="http://www.w3.org/2000/svg">
<path d="M27.8512 14.426C27.8171 14.3532 27.7856 14.2923 27.7562 14.2437C27.2701 13.369 26.3421 12.2949 24.972 11.0219L24.9426 10.9929L24.9281 10.978L24.9136 10.9639H24.8991C24.2771 10.3709 23.8834 9.97249 23.7185 9.76798C23.4173 9.37985 23.3491 8.98617 23.5144 8.58781C23.6316 8.28659 24.0687 7.65006 24.8267 6.6778C25.225 6.16313 25.5407 5.75028 25.7742 5.43841C27.4554 3.20332 28.184 1.77519 27.9607 1.15272L27.873 1.00701C27.8146 0.919242 27.6638 0.839144 27.4209 0.766288C27.1781 0.693433 26.867 0.68193 26.4883 0.730074L22.2899 0.759898C22.1928 0.750098 22.0957 0.752655 21.9981 0.766715C21.9009 0.781626 21.8379 0.796112 21.8085 0.810598C21.7791 0.82551 21.7552 0.83744 21.7356 0.846813L21.6773 0.890697C21.6287 0.919668 21.5754 0.970795 21.5171 1.04408C21.4587 1.11693 21.4097 1.20172 21.3714 1.29928C20.9146 2.4752 20.3948 3.56845 19.8116 4.57948C19.452 5.18192 19.1214 5.70469 18.8206 6.14651C18.5193 6.58919 18.2667 6.91469 18.0626 7.12303C17.8585 7.3318 17.6736 7.50009 17.5087 7.62578C17.3434 7.75274 17.2169 7.80557 17.13 7.7864C17.0422 7.76723 16.9596 7.74763 16.882 7.7276C16.7461 7.64026 16.6362 7.52139 16.554 7.37057C16.4713 7.22017 16.4155 7.03058 16.3861 6.80221C16.3571 6.57385 16.3396 6.37701 16.3354 6.2117C16.3303 6.04639 16.3328 5.81334 16.3426 5.51212C16.3524 5.2109 16.3571 5.00724 16.3571 4.89988C16.3571 4.53091 16.3644 4.12999 16.3793 3.69712C16.3938 3.26468 16.4061 2.92213 16.4155 2.66948C16.4253 2.41725 16.43 2.14969 16.43 1.86764C16.43 1.58644 16.4129 1.3649 16.3788 1.20427C16.3448 1.04408 16.2936 0.888992 16.2259 0.737743C16.1577 0.587345 16.058 0.470606 15.9268 0.388377C15.7956 0.305723 15.6328 0.24011 15.4385 0.19154C14.923 0.0748008 14.2673 0.0121707 13.4706 0.00194538C11.6628 -0.016801 10.5014 0.0999381 9.98631 0.352163C9.78223 0.459529 9.59732 0.604814 9.43244 0.789721C9.25733 1.0036 9.23304 1.12077 9.35958 1.13909C9.94285 1.22685 10.3557 1.43605 10.5985 1.76624L10.6863 1.94092C10.7541 2.06789 10.8222 2.29114 10.8904 2.61153C10.9586 2.93235 11.002 3.28683 11.0216 3.67582C11.0702 4.3852 11.0702 4.99233 11.0216 5.49806C10.9731 6.00379 10.927 6.39703 10.8832 6.67823C10.8393 6.96028 10.7737 7.18822 10.6863 7.36333C10.5986 7.53886 10.5406 7.6458 10.5112 7.68457C10.4818 7.72334 10.458 7.74763 10.4384 7.75743C10.3118 7.80557 10.181 7.83028 10.0447 7.83028C9.90834 7.83028 9.74346 7.76212 9.54875 7.62578C9.35447 7.49029 9.15252 7.30283 8.94375 7.06466C8.73456 6.82692 8.49938 6.49375 8.2365 6.06599C7.97405 5.63866 7.7018 5.13335 7.42018 4.55009L7.18713 4.12701C7.04141 3.85519 6.84202 3.45896 6.58937 2.93917C6.33672 2.41938 6.11304 1.91664 5.91876 1.43008C5.84079 1.22643 5.72448 1.07092 5.56897 0.963552L5.49611 0.919668C5.44754 0.880897 5.36957 0.83957 5.26263 0.796112C5.15527 0.752229 5.04407 0.720701 4.92733 0.701102L0.933061 0.730074C0.5249 0.730074 0.247964 0.822954 0.102253 1.00744L0.0438837 1.09478C0.0144859 1.14377 0 1.22174 0 1.32826C0 1.43562 0.0293978 1.56642 0.0877674 1.7215C0.671037 3.09212 1.30501 4.41375 1.9901 5.68637C2.67563 6.95985 3.2704 7.98537 3.77613 8.76249C4.28143 9.54047 4.79653 10.2737 5.32143 10.9639C5.84633 11.6541 6.19356 12.0959 6.36356 12.2902C6.53356 12.4849 6.66691 12.6306 6.76448 12.7278L7.12876 13.078C7.36181 13.3111 7.70478 13.5905 8.1564 13.9161C8.60845 14.242 9.10863 14.5624 9.65782 14.8777C10.2066 15.1938 10.8461 15.4507 11.5746 15.6505C12.3036 15.8499 13.013 15.93 13.7028 15.8908H15.3793C15.7197 15.8619 15.9771 15.7553 16.1518 15.57L16.2101 15.4971C16.2489 15.4392 16.2855 15.3489 16.3196 15.2279C16.3533 15.1065 16.3707 14.9727 16.3707 14.827C16.3605 14.409 16.3925 14.0319 16.4653 13.6971C16.5382 13.3618 16.6208 13.1091 16.7133 12.9387C16.8057 12.7691 16.9097 12.6255 17.0269 12.5088C17.1436 12.3921 17.2258 12.3222 17.2748 12.2975C17.3234 12.2736 17.3626 12.2566 17.3916 12.2463C17.6246 12.1688 17.899 12.2442 18.2151 12.4722C18.5308 12.7009 18.8274 12.9821 19.1043 13.3179C19.3813 13.6532 19.714 14.0294 20.103 14.4478C20.4916 14.8657 20.8315 15.1763 21.1234 15.3804L21.4152 15.5559C21.6095 15.6723 21.8622 15.7792 22.1732 15.8768C22.4842 15.9735 22.7565 15.9982 22.9895 15.9496L26.7213 15.8908C27.0907 15.8908 27.3775 15.8303 27.5815 15.7085C27.7856 15.5879 27.907 15.4533 27.9458 15.3076C27.9846 15.1618 27.9871 14.9974 27.9531 14.812C27.919 14.6276 27.8849 14.4989 27.8512 14.426Z" fill="#C21807"/>
</svg>
